<?xml version="1.0" standalone="no"?>
<!DOCTYPE svg PUBLIC "-//W3C//DTD SVG 20010904//EN"
 "http://www.w3.org/TR/2001/REC-SVG-20010904/DTD/svg10.dtd">
<svg version="1.0" xmlns="http://www.w3.org/2000/svg"
 width="250.000000pt" height="250.000000pt" viewBox="0 0 250.000000 250.000000"
 preserveAspectRatio="xMidYMid meet">
<metadata>
Created by potrace 1.11, written by Peter Selinger 2001-2013
</metadata>
<g transform="translate(0.000000,250.000000) scale(0.100000,-0.100000)"
fill="#000000" stroke="none">
<path d="M1255 2322 c6 -4 42 -30 80 -57 86 -60 216 -190 272 -273 94 -137
170 -337 187 -492 51 -456 -175 -879 -588 -1100 -110 -59 -297 -112 -403 -114
-18 -1 -33 -3 -33 -6 0 -6 121 -56 170 -70 133 -39 321 -54 445 -37 102 15
122 19 207 47 261 87 478 268 611 510 58 106 94 216 122 375 7 38 7 252 0 285
-3 14 -9 48 -14 77 -72 388 -401 731 -791 827 -113 27 -284 46 -265 28z"/>
<path d="M1045 2292 c-141 -27 -376 -132 -430 -193 -17 -18 -17 -19 6 -20 86
-3 293 -82 391 -151 53 -37 150 -120 183 -157 16 -19 35 -39 41 -45 29 -29 99
-143 134 -219 112 -238 126 -512 40 -769 -16 -49 -38 -106 -49 -128 -11 -22
-17 -40 -13 -40 3 0 39 35 81 78 131 133 211 273 261 457 25 89 37 326 20 400
-5 22 -11 54 -13 70 -23 149 -157 388 -284 506 -131 123 -307 223 -368 211z"/>
<path d="M458 1963 c-24 -27 -62 -73 -84 -103 -40 -54 -106 -171 -100 -177 1
-2 23 3 47 10 24 8 46 14 49 14 188 25 324 19 468 -23 163 -47 313 -136 436
-259 36 -36 66 -61 66 -56 0 32 -100 226 -144 280 -158 191 -331 299 -554 347
-115 24 -133 21 -184 -33z"/>
<path d="M527 1644 c-1 -1 -32 -5 -69 -8 -73 -8 -205 -41 -225 -57 -12 -11
-41 -122 -50 -192 l-5 -39 63 49 c105 81 196 131 304 165 99 32 165 48 202 48
49 1 4 17 -67 25 -61 7 -150 12 -153 9z"/>
<path d="M787 1314 c-1 -1 -56 -5 -122 -9 -66 -4 -133 -8 -150 -10 -16 -1 -52
-3 -78 -4 -45 -1 -49 -3 -63 -36 -7 -19 -14 -36 -14 -38 0 -3 27 -39 60 -82
33 -43 60 -81 60 -85 0 -5 -17 -46 -39 -92 -43 -95 -45 -129 -11 -180 79 -116
225 -189 369 -185 93 3 110 17 159 128 l41 93 60 3 c34 2 61 0 61 -3 0 -3 -12
-31 -26 -62 -15 -31 -42 -93 -61 -137 -20 -44 -42 -88 -50 -97 -19 -22 -13
-52 11 -56 24 -5 46 22 39 48 -5 17 107 283 128 305 10 10 15 12 48 14 11 0
26 16 35 36 l17 35 -166 211 -167 210 -70 -3 c-38 -1 -70 -3 -71 -4z"/>
</g>
</svg>
